<svg xmlns="http://www.w3.org/2000/svg" version="1.1" xmlns:xlink="http://www.w3.org/1999/xlink" width="1000" height="1000"><g clip-path="url(#SvgjsClipPath1071)"><rect width="1000" height="1000" fill="#ffffff"></rect><g transform="matrix(1.5313935681470137,0,0,1.5313935681470137,150,220.0382848392037)"><svg xmlns="http://www.w3.org/2000/svg" version="1.1" xmlns:xlink="http://www.w3.org/1999/xlink" width="457.1" height="365.63"><svg version="1.1" xmlns="http://www.w3.org/2000/svg" xmlns:xlink="http://www.w3.org/1999/xlink" width="457.1" height="365.63" viewBox="731.45,317.185,457.1,365.63"><defs><clipPath id="clip-1"><rect x="731.45" y="317.185" width="457.1" height="365.63" id="clip-1" fill="none"></rect></clipPath><clipPath id="SvgjsClipPath1071"><rect width="1000" height="1000" x="0" y="0" rx="350" ry="350"></rect></clipPath></defs><g fill="none" fill-rule="nonzero" stroke="none" stroke-width="1" stroke-linecap="butt" stroke-linejoin="miter" stroke-miterlimit="10" stroke-dasharray="" stroke-dashoffset="0" font-family="none" font-weight="none" font-size="none" text-anchor="none" style="mix-blend-mode: normal"><g><g clip-path="url(#clip-1)" id="Group 1"><g id="Group 1" fill="#1b00cf"><g id="Group 1"><path d="M972.45,320.365c-10.7,5.4 -19,11.4 -19.7,14c-1.8,7.2 2.8,33 9.8,55.3c13,41.5 29.5,73.6 56.7,110.2c28.8,38.9 68,79 98.7,101.2l4,2.9l-4.2,-4.5c-4.4,-4.6 -6,-7.7 -2.2,-4.3c1.3,1.2 0.7,-0.2 -1.5,-3.5c-1.9,-3 -3.3,-5.7 -3.1,-6.1c0.3,-0.4 3.1,1.7 6.2,4.7c13.7,12.9 22.5,18.2 11.8,7.1c-6.5,-6.8 -4.8,-6.1 2.7,1.1c2.6,2.4 4.5,4.8 4.3,5.2c-1.3,2 21.7,16 31,18.9c2.2,0.7 4.9,1.9 6,2.6c2.1,1.5 5.8,1.7 11.8,0.7l3.8,-0.6l-3.3,-3.4c-1.8,-1.9 -5.5,-5.1 -8.3,-7.1c-17.8,-13 -43.9,-38 -60.2,-57.7c-5.5,-6.6 -12.1,-14.2 -14.7,-16.9c-2.6,-2.7 -5.2,-5.8 -5.7,-6.8c-0.9,-1.8 -0.8,-1.8 1,-0.8c1.2,0.6 2.1,1.4 2.1,1.8c0.1,0.4 1.2,2 2.6,3.7c4.6,5.4 -3.2,-8.1 -9.6,-16.5c-15.7,-20.8 -42.6,-62.7 -55.8,-87c-15.9,-29.4 -40.6,-92.3 -43.7,-111.7c-0.9,-5.9 -2.3,-6.7 -7.4,-4.7c-3.6,1.4 -4.4,1.5 -5.4,0.2c-1,-1.1 -2.2,-0.8 -7.7,2zM1015.25,429.065c13.2,29.2 34.3,62.4 57.5,90.2c4.3,5.1 7.4,9.3 7,9.3c-1,0 -15.9,-17.8 -23.8,-28.5c-3.3,-4.4 -6.3,-8.2 -6.6,-8.5c-1.3,-1.1 -7.9,-11.3 -7.9,-12.2c0,-0.5 -0.4,-0.7 -0.9,-0.4c-2.3,1.5 -29.9,-45.5 -32.5,-55.4c-0.4,-1.4 1.2,1.1 3.5,5.5c6.6,12.8 18.1,33.6 18.5,33.3c0.1,-0.2 -4.2,-9.3 -9.7,-20.2c-5.4,-10.9 -9.9,-20.6 -9.9,-21.4c0,-2.3 0.4,-1.6 4.8,8.3zM1064.95,514.565c2.9,3.6 6.5,7.8 7.9,9.4c1.5,1.5 2.5,3 2.3,3.3c-0.3,0.2 -2.9,-2.4 -5.9,-5.9c-8,-9.2 -13.6,-16.5 -11.4,-14.8c1.1,0.8 4.3,4.4 7.1,8z" id="CompoundPath 1"></path><path d="M1030.75,463.865c0.7,2 8.6,13.7 9.2,13.7c0.5,0 -8,-13.9 -9.1,-14.9c-0.4,-0.3 -0.4,0.2 -0.1,1.2z" id="Path 1"></path><path d="M922.65,326.265c-1.1,2.6 -4.8,13.3 -8.2,23.8c-9,27.6 -12.6,37.4 -18.9,52c-3.2,7.1 -6.3,14.6 -7.1,16.5c-2.9,7.6 -3.8,6.5 -1.5,-2c0.8,-3 1.5,-6.2 1.4,-7c0,-2.1 -6,9.7 -13.4,26.5c-18.2,41.2 -53.1,90.6 -92.9,131.3c-11.1,11.5 -38,36 -45.3,41.3c-2.9,2.2 -5.3,4.3 -5.3,4.8c0,0.4 1.2,1.8 2.6,3.2c1.4,1.3 4.6,5.2 7.1,8.6c3.5,5 5,6.3 7.1,6.3c1.6,0 3.9,1.3 5.9,3.2c3.1,3 3.4,3.1 7.1,2c9.7,-2.9 32.8,-21.5 53.6,-43.2c20.2,-21.2 43.2,-51.7 57.6,-76.6c15.4,-26.6 33.5,-67.5 43.7,-98.4c4.4,-13.5 8.7,-29.9 8,-30.7c-0.3,-0.2 -1.5,2 -2.8,4.9c-2.1,4.8 -2.4,5 -2.7,2.6c-0.2,-1.5 0.8,-6.3 2.2,-10.8c1.4,-4.5 2.6,-9.1 2.5,-10.3c-0.1,-1.3 -0.8,-0.1 -1.7,2.8c-0.8,2.7 -1.7,4.5 -1.9,3.9c-0.2,-0.6 0.5,-3.5 1.6,-6.4c1.8,-4.8 2.9,-10.5 6.1,-32.5c0.7,-4.7 0.7,-8.7 0,-12.3c-1.6,-8.5 -2.4,-9.1 -4.8,-3.5zM886.55,436.265c-1,2.7 -3.8,8.7 -6,13.5c-2.3,4.8 -4.2,9.1 -4.2,9.5c0,0.5 -0.9,2.3 -2.1,4c-1.1,1.8 -1.6,3.3 -1.2,3.3c0.4,0 0,0.8 -0.9,1.7c-0.8,1 -1.6,2.1 -1.6,2.6c-0.1,1.7 -3.3,6.7 -4,6.3c-0.4,-0.3 -0.7,0.5 -0.7,1.7c0.1,1.3 -0.4,2.1 -1.2,1.9c-0.8,-0.1 -1.1,0.1 -0.8,0.6c0.7,1.1 -5.8,12.7 -7.1,12.7c-0.6,0 -3.2,3.1 -5.8,7c-2.6,3.8 -6.1,8.9 -7.7,11.3c-1.7,2.4 -3.2,4.1 -3.5,3.8c-0.3,-0.3 1.6,-3.6 4.2,-7.3c11.4,-16.3 23.2,-36.6 35.7,-61.6c7.9,-15.8 10.4,-19.8 6.9,-11zM849.55,506.865c-1,0.9 -1.1,0.8 -0.5,-0.6c0.3,-1 0.9,-1.5 1.2,-1.2c0.3,0.3 0,1.1 -0.7,1.8zM844.25,515.565c-0.7,1 -1.4,1.7 -1.7,1.5c-0.4,-0.4 1.8,-3.5 2.5,-3.5c0.2,0 -0.1,0.9 -0.8,2z" id="CompoundPath 1"></path><path d="M857.45,491.065c-0.7,0.9 -1.1,1.7 -0.9,2c0.3,0.2 1,-0.5 1.7,-1.5c1.4,-2.4 1,-2.6 -0.8,-0.5z" id="Path 1"></path><path d="M949.45,609.165c-16.6,0.9 -49.6,5.5 -68,9.4c-20.9,4.5 -36.6,8.8 -69.2,19c-18.5,5.8 -23.4,7.7 -22.5,8.7c0.3,0.2 1.5,-0.1 2.7,-0.7c1.1,-0.6 3.3,-1 4.8,-0.8c2.6,0.3 2.6,0.4 -1.3,2.4c-2.2,1.2 -5.4,2.5 -7.2,2.8c-1.7,0.4 -3.7,1.4 -4.3,2.2c-0.7,0.7 -4.7,3.2 -8.9,5.5c-10.3,5.5 -22.1,16.6 -22.1,20.7c0,1 0.3,1.3 0.8,0.6c0.4,-0.6 2.7,-1.4 5.2,-1.7c2.5,-0.3 12.6,-2.9 22.5,-5.8c35.1,-10 63.3,-16 86.5,-18.3c57.8,-5.9 104.5,-4.3 189.3,6.5c26.4,3.3 53.4,9.4 89.4,20.2c6.3,1.9 12.4,3.2 13.9,2.9c3.4,-0.6 5,-4.2 3.4,-7.3c-1.1,-2 -1,-2.5 1,-4.1c1.3,-1 2.8,-2.2 3.5,-2.6c0.6,-0.4 2.1,-4.5 3.4,-9.2c2.2,-7.9 2.2,-8.5 0.6,-9.5c-1,-0.5 -3.6,-2.5 -5.9,-4.4c-10.4,-8.7 -43,-20.1 -72.6,-25.5c-39.3,-7.2 -73.4,-10.6 -109.5,-11c-15.9,-0.2 -31.9,-0.2 -35.5,0zM984.65,632.265c-5.1,0.2 -13.2,0.2 -18,0c-4.8,-0.1 -0.6,-0.3 9.3,-0.3c9.9,0 13.8,0.2 8.7,0.3zM983.75,634.165c8,0.4 13.7,1 13.7,1.6c0,0.6 -1.4,0.8 -3.2,0.5c-7.9,-1.4 -39.6,-1.8 -55.8,-0.8c-20.8,1.3 -31.2,2.5 -52.5,5.8c-22,3.5 -23.1,3.6 -22.4,2.9c1.1,-1.2 31.8,-6.6 48.9,-8.6c23.9,-2.8 37.7,-3 71.3,-1.4zM870.15,641.165c-0.3,0.3 -1.2,0.4 -1.9,0.1c-0.8,-0.3 -0.5,-0.6 0.6,-0.6c1.1,-0.1 1.7,0.2 1.3,0.5z" id="CompoundPath 1"></path></g></g></g></g></g></svg></svg></g></g></svg>